<?xml version="1.0" encoding="UTF-8"?>
<svg xmlns="http://www.w3.org/2000/svg" xmlns:xlink="http://www.w3.org/1999/xlink" width="268pt" height="194.4pt" viewBox="0 0 268 194.4" version="1.1">
<defs>
<clipPath id="clip1">
  <path d="M 47 165 L 89 165 L 89 194.398438 L 47 194.398438 Z M 47 165 "/>
</clipPath>
<clipPath id="clip2">
  <path d="M 47 165 L 90 165 L 90 194.398438 L 47 194.398438 Z M 47 165 "/>
</clipPath>
</defs>
<g id="surface1">
<path style="fill-rule:evenodd;fill:rgb(69.726563%,65.039063%,65.039063%);fill-opacity:1;stroke-width:2.16;stroke-linecap:butt;stroke-linejoin:miter;stroke:rgb(69.726563%,65.039063%,65.039063%);stroke-opacity:1;stroke-miterlimit:4;" d="M 1107.578125 490.835938 L 1107.578125 377.515625 L 1250.273438 377.515625 L 1250.273438 463.257813 L 1390.546875 463.257813 L 1390.546875 538.804688 L 1473.28125 538.804688 L 1473.28125 619.15625 L 1542.851563 619.15625 L 1542.851563 707.867188 L 1667.539063 707.867188 L 1667.539063 726.070313 L 1733.398438 726.070313 L 1733.398438 778.023438 L 1748.75 778.023438 L 1748.75 909.976563 L 1664.179688 909.976563 L 1664.179688 929.234375 L 1391.757813 929.234375 L 1391.757813 548.84375 L 1183.125 548.84375 L 1183.125 490.835938 Z M 1107.578125 490.835938 " transform="matrix(0.1,0,0,-0.1,0,194.4)"/>
<path style=" stroke:none;fill-rule:evenodd;fill:rgb(8.227539%,8.616638%,8.616638%);fill-opacity:1;" d="M 100.804688 23.613281 L 100.804688 22.773438 L 108.960938 22.773438 L 108.960938 25.410156 L 116.394531 25.410156 L 116.394531 11.621094 L 125.625 11.621094 L 125.625 3.703125 L 136.296875 3.703125 L 136.296875 6.945313 L 150.328125 6.945313 L 150.328125 -0.0078125 L 162.4375 -0.0078125 L 162.4375 23.371094 L 157.28125 23.371094 L 157.28125 39.679688 L 151.167969 39.679688 L 151.167969 48.910156 L 142.292969 48.910156 L 142.292969 79.007813 L 135.9375 79.007813 L 135.9375 90.160156 L 148.886719 90.160156 L 148.886719 82.007813 L 158.121094 82.007813 L 158.121094 107.1875 L 166.753906 107.1875 L 166.753906 123.613281 L 139.175781 123.613281 L 139.175781 140.519531 L 118.3125 140.519531 L 118.3125 145.195313 L 51.285156 145.195313 L 51.285156 136.082031 L 39.292969 136.082031 L 39.292969 130.808594 L 26.824219 130.808594 L 26.824219 121.8125 L 13.515625 121.8125 L 13.515625 114.140625 L 0.0859375 114.140625 L 0.0859375 107.785156 L 14.472656 107.785156 L 14.472656 114.140625 L 21.910156 114.140625 L 21.910156 107.304688 L 44.691406 107.304688 L 44.691406 98.433594 L 68.671875 98.433594 L 68.671875 91.476563 L 87.617188 91.476563 L 87.617188 30.925781 L 89.535156 30.925781 L 89.535156 23.578125 Z M 100.804688 23.613281 "/>
<path style="fill-rule:evenodd;fill:rgb(100%,100%,100%);fill-opacity:1;stroke-width:2.16;stroke-linecap:butt;stroke-linejoin:miter;stroke:rgb(100%,100%,100%);stroke-opacity:1;stroke-miterlimit:4;" d="M 895.351563 1634.742188 L 895.351563 1708.21875 L 1008.046875 1707.867188 L 1008.046875 1640.71875 L 1090.78125 1640.71875 L 1090.78125 1657.515625 L 1175.9375 1657.515625 L 1175.9375 1742.671875 L 1238.28125 1742.671875 L 1238.28125 1694.703125 L 1333.007813 1694.703125 L 1333.007813 1743.84375 L 1389.375 1743.84375 L 1389.375 1791.8125 L 1499.6875 1791.8125 L 1499.6875 1718.6875 L 1445.703125 1718.6875 L 1445.703125 1548.414063 L 1355.78125 1548.414063 L 1355.78125 1252.242188 L 1283.828125 1252.242188 L 1283.828125 971.65625 L 1217.890625 971.65625 L 1217.890625 791.8125 L 1328.203125 791.8125 L 1328.203125 711.460938 L 1391.757813 711.460938 L 1391.757813 538.804688 L 1183.125 538.804688 L 1183.125 492.046875 L 1107.578125 492.046875 L 1107.578125 379.3125 L 1005.664063 379.3125 L 1005.664063 490.835938 L 930.117188 490.835938 L 930.117188 572.359375 L 848.59375 572.359375 L 848.59375 492.046875 L 758.671875 492.046875 L 758.671875 581.96875 L 822.226563 581.96875 L 822.226563 1029.234375 L 851.601563 1029.234375 L 851.601563 1115.5625 L 804.21875 1115.5625 L 804.21875 1285.796875 L 876.171875 1285.796875 L 876.171875 1457.28125 L 955.3125 1457.28125 L 955.3125 1634.9375 Z M 895.351563 1634.742188 " transform="matrix(0.1,0,0,-0.1,0,194.4)"/>
<path style="fill-rule:evenodd;fill:rgb(69.726563%,65.039063%,65.039063%);fill-opacity:1;stroke-width:2.16;stroke-linecap:butt;stroke-linejoin:miter;stroke:rgb(69.726563%,65.039063%,65.039063%);stroke-opacity:1;stroke-miterlimit:4;" d="M 1076.914063 1464.703125 L 1285.46875 1464.703125 L 1285.46875 1310.601563 L 1167.265625 1315.40625 L 1166.289063 1387.632813 L 1074.023438 1401.109375 Z M 1076.914063 1464.703125 " transform="matrix(0.1,0,0,-0.1,0,194.4)"/>
<path style="fill-rule:evenodd;fill:rgb(69.726563%,65.039063%,65.039063%);fill-opacity:1;stroke-width:2.16;stroke-linecap:butt;stroke-linejoin:miter;stroke:rgb(69.726563%,65.039063%,65.039063%);stroke-opacity:1;stroke-miterlimit:4;" d="M 1056.71875 936.03125 L 1056.71875 874.351563 L 1177.8125 874.351563 L 1174.960938 934.039063 Z M 1056.71875 936.03125 " transform="matrix(0.1,0,0,-0.1,0,194.4)"/>
<path style="fill-rule:evenodd;fill:rgb(100%,100%,100%);fill-opacity:1;stroke-width:2.16;stroke-linecap:butt;stroke-linejoin:miter;stroke:rgb(100%,100%,100%);stroke-opacity:1;stroke-miterlimit:4;" d="M 305.742188 635.914063 L 305.742188 556.070313 L 332.96875 556.070313 L 332.96875 459.9375 L 361.796875 459.9375 L 361.796875 387.867188 L 422.65625 387.867188 L 422.65625 333.414063 L 513.945313 333.414063 L 513.945313 387.867188 L 541.171875 387.867188 L 541.171875 492.046875 L 512.851563 492.046875 L 512.851563 583.179688 L 392.929688 583.179688 L 392.929688 635.914063 Z M 305.742188 635.914063 " transform="matrix(0.1,0,0,-0.1,0,194.4)"/>
<path style="fill-rule:evenodd;fill:rgb(69.726563%,65.039063%,65.039063%);fill-opacity:1;stroke-width:2.16;stroke-linecap:butt;stroke-linejoin:miter;stroke:rgb(69.726563%,65.039063%,65.039063%);stroke-opacity:1;stroke-miterlimit:4;" d="M 414.648438 551.226563 L 414.648438 450.328125 L 496.328125 450.328125 L 496.328125 552.828125 Z M 414.648438 551.226563 " transform="matrix(0.1,0,0,-0.1,0,194.4)"/>
<path style="fill-rule:evenodd;fill:rgb(40.795898%,38.426208%,38.035583%);fill-opacity:1;stroke-width:2.16;stroke-linecap:butt;stroke-linejoin:miter;stroke:rgb(40.795898%,38.426208%,38.035583%);stroke-opacity:1;stroke-miterlimit:4;" d="M 541.171875 492.046875 L 540.820313 377.359375 L 671.132813 377.359375 L 671.132813 492.046875 Z M 541.171875 492.046875 " transform="matrix(0.1,0,0,-0.1,0,194.4)"/>
<path style="fill-rule:evenodd;fill:rgb(69.726563%,65.039063%,65.039063%);fill-opacity:1;stroke-width:2.16;stroke-linecap:butt;stroke-linejoin:miter;stroke:rgb(69.726563%,65.039063%,65.039063%);stroke-opacity:1;stroke-miterlimit:4;" d="M 1005.664063 379.3125 L 1005.664063 490.835938 L 930.117188 490.835938 L 930.117188 572.359375 L 848.59375 572.359375 L 848.59375 492.046875 L 671.132813 492.046875 L 671.132813 377.359375 Z M 1005.664063 379.3125 " transform="matrix(0.1,0,0,-0.1,0,194.4)"/>
<path style="fill-rule:evenodd;fill:rgb(40.795898%,38.426208%,38.035583%);fill-opacity:1;stroke-width:2.16;stroke-linecap:butt;stroke-linejoin:miter;stroke:rgb(40.795898%,38.426208%,38.035583%);stroke-opacity:1;stroke-miterlimit:4;" d="M 702.929688 290.171875 L 702.929688 377.515625 L 1107.578125 377.515625 L 1107.578125 290.484375 Z M 702.929688 290.171875 " transform="matrix(0.1,0,0,-0.1,0,194.4)"/>
<g clip-path="url(#clip1)" clip-rule="nonzero">
<path style=" stroke:none;fill-rule:evenodd;fill:rgb(84.375%,28.637695%,5.883789%);fill-opacity:1;" d="M 49.765625 166.019531 L 49.765625 172.894531 L 47.527344 172.894531 L 47.527344 182.007813 L 50.484375 182.007813 L 50.484375 188.402344 L 56.960938 188.402344 L 56.960938 194.210938 L 65.488281 194.210938 L 65.488281 188.835938 L 70.710938 188.835938 L 70.710938 182.246094 L 81.382813 182.246094 L 81.382813 173.613281 L 88.9375 173.613281 L 88.9375 165.367188 L 49.765625 165.367188 Z M 49.765625 166.019531 "/>
</g>
<g clip-path="url(#clip2)" clip-rule="nonzero">
<path style="fill:none;stroke-width:2.16;stroke-linecap:butt;stroke-linejoin:miter;stroke:rgb(84.375%,28.637695%,5.883789%);stroke-opacity:1;stroke-miterlimit:4;" d="M 497.65625 283.804688 L 497.65625 215.054688 L 475.273438 215.054688 L 475.273438 123.921875 L 504.84375 123.921875 L 504.84375 59.976563 L 569.609375 59.976563 L 569.609375 1.890625 L 654.882813 1.890625 L 654.882813 55.640625 L 707.109375 55.640625 L 707.109375 121.539063 L 813.828125 121.539063 L 813.828125 207.867188 L 889.375 207.867188 L 889.375 290.328125 L 497.65625 290.328125 Z M 497.65625 283.804688 " transform="matrix(0.1,0,0,-0.1,0,194.4)"/>
</g>
<path style="fill-rule:evenodd;fill:rgb(100%,100%,100%);fill-opacity:1;stroke-width:2.16;stroke-linecap:butt;stroke-linejoin:miter;stroke:rgb(100%,100%,100%);stroke-opacity:1;stroke-miterlimit:4;" d="M 1581.210938 1123.921875 L 1581.210938 929.234375 L 1664.179688 929.234375 L 1664.179688 1122.984375 Z M 1581.210938 1123.921875 " transform="matrix(0.1,0,0,-0.1,0,194.4)"/>
<path style="fill-rule:evenodd;fill:rgb(6.272888%,32.542419%,14.501953%);fill-opacity:1;stroke-width:2.16;stroke-linecap:butt;stroke-linejoin:miter;stroke:rgb(6.272888%,32.542419%,14.501953%);stroke-opacity:1;stroke-miterlimit:4;" d="M 1748.75 824.273438 L 2232.773438 824.273438 L 2232.773438 917.359375 L 2275.039063 917.359375 L 2275.039063 1290.171875 L 2217.382813 1290.171875 L 2217.382813 1347.203125 L 1898.359375 1347.203125 L 1898.359375 1301.695313 L 1817.617188 1301.695313 L 1817.617188 1217.164063 L 1740.742188 1217.164063 L 1740.742188 1122.984375 L 1664.179688 1122.984375 L 1664.179688 909.976563 L 1748.75 909.976563 Z M 1748.75 824.273438 " transform="matrix(0.1,0,0,-0.1,0,194.4)"/>
<path style="fill-rule:evenodd;fill:rgb(100%,100%,100%);fill-opacity:1;stroke-width:2.16;stroke-linecap:butt;stroke-linejoin:miter;stroke:rgb(100%,100%,100%);stroke-opacity:1;stroke-miterlimit:4;" d="M 1952.5 1298.21875 L 2035.664063 1298.21875 L 2035.664063 1330.992188 L 2138.789063 1330.992188 L 2138.789063 1310.210938 L 2193.125 1310.210938 L 2193.125 1036.03125 L 2137.1875 1036.03125 L 2137.1875 980.054688 L 2031.640625 980.054688 L 2031.640625 1038.414063 L 1952.5 1038.414063 Z M 1952.5 1298.21875 " transform="matrix(0.1,0,0,-0.1,0,194.4)"/>
<path style="fill-rule:evenodd;fill:rgb(69.726563%,65.039063%,65.039063%);fill-opacity:1;stroke-width:2.16;stroke-linecap:butt;stroke-linejoin:miter;stroke:rgb(69.726563%,65.039063%,65.039063%);stroke-opacity:1;stroke-miterlimit:4;" d="M 2038.671875 1044.898438 L 2038.671875 980.054688 L 2129.960938 980.054688 L 2129.960938 1044.390625 Z M 2038.671875 1044.898438 " transform="matrix(0.1,0,0,-0.1,0,194.4)"/>
<path style="fill-rule:evenodd;fill:rgb(8.227539%,8.616638%,8.616638%);fill-opacity:1;stroke-width:2.16;stroke-linecap:butt;stroke-linejoin:miter;stroke:rgb(8.227539%,8.616638%,8.616638%);stroke-opacity:1;stroke-miterlimit:4;" d="M 2118.789063 1145.523438 L 2186.71875 1145.523438 L 2186.71875 1275.015625 L 2118.789063 1275.015625 Z M 2118.789063 1145.523438 " transform="matrix(0.1,0,0,-0.1,0,194.4)"/>
<path style="fill-rule:evenodd;fill:rgb(84.375%,28.637695%,5.883789%);fill-opacity:1;stroke-width:2.16;stroke-linecap:butt;stroke-linejoin:miter;stroke:rgb(84.375%,28.637695%,5.883789%);stroke-opacity:1;stroke-miterlimit:4;" d="M 2275.039063 1191.109375 L 2389.765625 1191.109375 L 2389.765625 1142.359375 L 2541.640625 1142.359375 L 2541.640625 1092.789063 L 2679.140625 1092.789063 L 2679.140625 929.195313 L 2275.039063 929.195313 Z M 2275.039063 1191.109375 " transform="matrix(0.1,0,0,-0.1,0,194.4)"/>
<path style="fill-rule:evenodd;fill:rgb(81.639099%,17.259216%,5.883789%);fill-opacity:1;stroke-width:2.16;stroke-linecap:butt;stroke-linejoin:miter;stroke:rgb(81.639099%,17.259216%,5.883789%);stroke-opacity:1;stroke-miterlimit:4;" d="M 2275.039063 1048.023438 L 2451.835938 1048.023438 L 2451.835938 988.453125 L 2679.140625 988.453125 L 2679.140625 929.195313 L 2275.039063 929.195313 Z M 2275.039063 1048.023438 " transform="matrix(0.1,0,0,-0.1,0,194.4)"/>
<path style="fill-rule:evenodd;fill:rgb(7.054138%,23.143005%,10.205078%);fill-opacity:1;stroke-width:2.16;stroke-linecap:butt;stroke-linejoin:miter;stroke:rgb(7.054138%,23.143005%,10.205078%);stroke-opacity:1;stroke-miterlimit:4;" d="M 1809.960938 950.015625 L 1809.960938 901.96875 L 1838.789063 901.96875 L 1838.789063 824.273438 L 2232.773438 824.273438 L 2232.773438 917.359375 L 2275.039063 917.359375 L 2275.039063 982.671875 L 2203.945313 982.671875 L 2203.945313 1027.476563 L 2137.1875 1027.476563 L 2137.1875 948.53125 L 1971.757813 948.53125 L 1971.757813 918.648438 L 1902.539063 918.648438 L 1902.539063 950.40625 Z M 1809.960938 950.015625 " transform="matrix(0.1,0,0,-0.1,0,194.4)"/>
<path style="fill-rule:evenodd;fill:rgb(78.125%,12.156677%,6.272888%);fill-opacity:1;stroke-width:2.16;stroke-linecap:butt;stroke-linejoin:miter;stroke:rgb(78.125%,12.156677%,6.272888%);stroke-opacity:1;stroke-miterlimit:4;" d="M 2275.039063 929.195313 L 2357.1875 929.195313 L 2357.1875 1009.585938 L 2275.039063 1009.585938 Z M 2275.039063 929.195313 " transform="matrix(0.1,0,0,-0.1,0,194.4)"/>
<path style="fill-rule:evenodd;fill:rgb(6.272888%,16.868591%,6.665039%);fill-opacity:1;stroke-width:2.16;stroke-linecap:butt;stroke-linejoin:miter;stroke:rgb(6.272888%,16.868591%,6.665039%);stroke-opacity:1;stroke-miterlimit:4;" d="M 1664.179688 1036.148438 L 1808.359375 1036.148438 L 1808.359375 901.96875 L 1838.789063 901.96875 L 1838.789063 824.273438 L 1748.75 824.273438 L 1748.75 909.976563 L 1664.179688 909.976563 Z M 1664.179688 1036.148438 " transform="matrix(0.1,0,0,-0.1,0,194.4)"/>
<path style="fill-rule:evenodd;fill:rgb(81.639099%,17.259216%,5.883789%);fill-opacity:1;stroke-width:2.16;stroke-linecap:butt;stroke-linejoin:miter;stroke:rgb(81.639099%,17.259216%,5.883789%);stroke-opacity:1;stroke-miterlimit:4;" d="M 574.21875 290.328125 L 574.21875 164.585938 L 707.8125 164.585938 L 707.8125 290.484375 Z M 574.21875 290.328125 " transform="matrix(0.1,0,0,-0.1,0,194.4)"/>
<path style="fill-rule:evenodd;fill:rgb(78.125%,12.156677%,6.272888%);fill-opacity:1;stroke-width:2.16;stroke-linecap:butt;stroke-linejoin:miter;stroke:rgb(78.125%,12.156677%,6.272888%);stroke-opacity:1;stroke-miterlimit:4;" d="M 707.109375 121.539063 L 813.828125 121.539063 L 813.828125 207.867188 L 889.375 207.867188 L 889.375 290.328125 L 707.8125 290.328125 Z M 707.109375 121.539063 " transform="matrix(0.1,0,0,-0.1,0,194.4)"/>
</g>
</svg>
